<svg width="116" height="40" viewBox="0 0 116 40" fill="none" xmlns="http://www.w3.org/2000/svg">
<path d="M108.42 29.6133C108.518 28.3547 109.255 27.7323 110.326 27.7323C111.55 27.7323 112.12 28.4653 112.148 29.6133H108.42ZM110.59 36.7084C112.078 36.7084 113.469 36.2658 114.777 34.9657L112.955 32.9326C112.51 33.4582 111.619 34.0667 110.604 34.0667C109.185 34.0667 108.476 33.2369 108.434 31.8677H115.152C115.194 31.4804 115.208 31.1623 115.208 30.775C115.208 27.3174 113.358 25.2013 110.354 25.2013C107.015 25.2013 105.277 27.8706 105.277 31.0793C105.277 34.5508 107.141 36.7084 110.59 36.7084ZM98.8367 34.0667C98.0578 34.0667 97.4179 33.721 97.0146 33.1539V28.7558C97.4179 28.1887 98.0717 27.8429 98.8367 27.8429C99.9772 27.8429 100.854 28.9494 100.854 30.9548C100.84 32.9464 99.9633 34.0667 98.8367 34.0667ZM93.8571 25.4502V39.7511H97.0006V35.6158C97.5153 36.1967 98.3638 36.7084 99.6434 36.7084C101.98 36.7084 104.039 34.8136 104.039 30.9548C104.039 27.0961 101.98 25.2013 99.6434 25.2013C98.4194 25.2013 97.3206 25.7268 96.7781 26.3907V25.4641H93.8571V25.4502ZM86.8885 34.0667C86.1096 34.0667 85.4698 33.721 85.0664 33.1539V28.7558C85.4698 28.1887 86.1235 27.8429 86.8885 27.8429C88.0291 27.8429 88.9054 28.9494 88.9054 30.9548C88.8915 32.9464 88.0152 34.0667 86.8885 34.0667ZM81.909 25.4502V39.7511H85.0525V35.6158C85.5672 36.1967 86.4156 36.7084 87.6953 36.7084C90.0321 36.7084 92.0906 34.8136 92.0906 30.9548C92.0906 27.0961 90.0321 25.2013 87.6953 25.2013C86.4713 25.2013 85.3724 25.7268 84.83 26.3907V25.4641H81.909V25.4502ZM74.9126 36.7084C77.7223 36.7084 79.753 35.2977 79.753 32.1443V25.4641H76.6095V31.9506C76.6095 33.5273 76.0392 34.0667 74.9265 34.0667C73.8137 34.0667 73.2435 33.5273 73.2435 31.9506V25.4641H70.0999V32.1443C70.086 35.2977 72.1168 36.7084 74.9126 36.7084ZM62.422 25.4502V36.4456H65.5655V29.1983C65.8715 28.5068 66.4974 28.0227 67.5545 28.0227C68.0831 28.0227 68.6116 28.1472 69.0846 28.2855V25.3534C68.862 25.2981 68.3474 25.1874 67.8466 25.1874C66.873 25.1874 65.8576 25.6577 65.3429 26.6397V25.4502H62.422ZM55.2726 33.0571C54.132 33.0571 53.2557 32.1858 53.2557 30.4569C53.2557 28.7143 54.132 27.8568 55.2726 27.8568C56.0515 27.8568 56.6079 28.2025 57.0251 28.7696V32.1581C56.6079 32.7113 56.0376 33.0571 55.2726 33.0571ZM55.1057 40.0001C58.4161 40.0001 60.1687 38.2436 60.1687 34.9934V25.4641H57.2477V26.3907C56.7052 25.7268 55.6481 25.2013 54.4241 25.2013C52.0873 25.2013 50.0705 26.8333 50.0705 30.4569C50.0705 34.0667 52.0873 35.7126 54.4241 35.7126C55.7038 35.7126 56.5105 35.3253 57.0251 34.7444V35.4775C57.0251 36.736 56.4827 37.3723 55.1196 37.3723C53.5756 37.3723 52.4768 36.8882 51.5449 36.2796L50.4738 38.5617C51.5866 39.3224 53.3253 40.0001 55.1057 40.0001ZM79.1271 5.7692L82.5071 16.7646H85.3168L87.2919 10.0982L89.267 16.7646H92.0767L95.415 5.7692H92.2436L90.5606 12.2696L88.5855 5.7692H85.9427L83.9676 12.2696L82.2845 5.7692H79.1271ZM49.375 5.7692L52.7411 16.7646H55.5508L57.5259 10.0982L59.501 16.7646H62.3107L65.6768 5.7692H62.5054L60.8224 12.2696L58.8473 5.7692H56.2045L54.2294 12.2696L52.5463 5.7692H49.375ZM70.0165 6.10114C70.0165 6.70969 70.3225 7.13844 70.7676 7.62251L70.9762 7.8438L71.4492 7.59485C72.5619 7.02779 72.7149 6.64053 72.7149 6.19795C72.7149 5.54791 72.1863 4.96702 71.3935 4.96702C70.545 4.96702 70.0165 5.49259 70.0165 6.10114ZM70.3503 14.3857C71.018 14.3857 71.7552 13.9431 72.4367 13.3761L70.2808 11.0663C69.2793 11.6334 68.7925 12.2558 68.7925 12.9197C68.8064 13.8325 69.3488 14.3857 70.3503 14.3857ZM70.2251 17.0274C67.7075 17.0274 65.6072 15.6581 65.6072 12.9197C65.6072 11.26 66.7061 10.0844 68.4586 9.10239L68.25 8.85344C67.4711 8.0236 66.9286 7.19376 66.9286 6.04581C66.9286 4.06803 68.6951 2.35303 71.3796 2.35303C74.0363 2.35303 75.7889 3.88823 75.7889 6.1288C75.7889 7.88529 74.6761 8.81195 73.1322 9.62795L72.854 9.76626L74.4814 11.4674L77.2911 8.75662L79.2245 10.7759L76.4426 13.4867L76.5678 13.6112C77.2633 14.3165 77.8475 14.358 78.1674 14.3857C78.5986 14.3995 79.1967 14.2059 79.6696 13.9155V16.6678C79.2384 16.8752 78.5986 17.0274 77.6527 17.0274C76.2479 17.0274 75.316 16.4465 74.4814 15.5475L74.3423 15.4092C73.0905 16.3635 71.7412 17.0274 70.2251 17.0274Z" fill="black"/>
<path d="M39.8522 0H0V40H39.8522V0Z" fill="white"/>
<path d="M0 0V40H39.97V0H0ZM19.5691 31.8871L21.3597 33.9189C20.7816 34.8501 19.9075 34.8642 19.9075 34.8642C19.9075 34.8642 18.695 34.9489 18.4976 33.7213C18.3707 32.9735 19.0334 32.3386 19.5691 31.8871ZM19.1179 29.1076C19.0897 28.6702 19.3435 28.1764 19.8793 28.0917C20.3586 28.0071 20.7252 28.388 20.8098 28.8113C20.979 29.672 19.9216 30.2787 19.9216 30.2787C19.9216 30.2787 19.1461 29.7707 19.1179 29.1076ZM34.4292 34.8078H29.8753L27.8169 25.7354L25.8572 34.8078H24.2076L23.0797 33.5802C23.0797 33.5802 23.6437 32.5079 23.8551 31.4074H22.5721C22.4453 32 22.121 32.5644 22.121 32.5644L20.8239 31.097C20.8239 31.097 22.4312 30.1376 22.1069 28.5855C21.9095 27.6261 20.9931 26.709 19.6114 26.9206C18.4694 27.1041 17.6235 28.261 17.9336 29.5732C18.1169 30.3351 18.7514 30.8713 18.7514 30.8713C18.7514 30.8713 16.6225 32.0988 16.9326 34.0882C16.9749 34.3139 17.0595 34.5679 17.2146 34.8078H14.1693L12.1109 25.7354L10.1511 34.8078H5.54082L2.18531 21.3192H6.34445L8.24779 30.5608L10.3062 21.3192H13.9155L16.0162 30.5467L17.9336 21.3192H22.0646L23.9679 30.5608L26.0263 21.3192H29.6356L31.7364 30.5467L33.6397 21.3192H37.7847L34.4292 34.8078Z" fill="#F84914"/>
</svg>
